<?xml version="1.0" standalone="no"?>
<!DOCTYPE svg PUBLIC "-//W3C//DTD SVG 20010904//EN"
 "http://www.w3.org/TR/2001/REC-SVG-20010904/DTD/svg10.dtd">
<svg version="1.0" xmlns="http://www.w3.org/2000/svg"
 width="800.000000pt" height="800.000000pt" viewBox="0 0 800.000000 800.000000"
 preserveAspectRatio="xMidYMid meet">
<metadata>
Created by potrace 1.11, written by Peter Selinger 2001-2013
</metadata>
<g transform="translate(0.000000,800.000000) scale(0.100000,-0.100000)"
fill="#000000" stroke="none">
<path d="M813 5705 c1 -5 11 -18 22 -28 25 -23 129 -125 175 -172 19 -19 38
-35 43 -35 4 0 5 -4 2 -10 -3 -5 -2 -10 3 -10 5 0 141 -130 303 -290 161 -159
297 -290 301 -290 5 0 8 -4 8 -9 0 -5 28 -36 61 -68 34 -32 185 -180 335 -329
151 -149 276 -268 279 -266 3 3 5 -3 5 -13 0 -10 2 -16 5 -13 3 2 48 -38 100
-90 l95 -94 -230 -228 c-127 -125 -230 -226 -230 -225 0 1 -24 -21 -52 -49
-29 -28 -53 -52 -52 -54 1 -2 -87 -92 -90 -92 -2 0 -96 -92 -210 -205 -114
-113 -212 -205 -218 -205 -6 0 -9 -3 -6 -6 8 -7 -70 -84 -84 -84 -6 0 -9 -3
-6 -6 6 -5 -60 -74 -72 -74 -4 0 -13 -11 -20 -25 -7 -14 -15 -24 -16 -22 -4 3
-454 -438 -454 -445 0 -2 236 -3 523 -3 l524 0 97 98 c53 53 101 97 106 97 6
0 10 7 10 15 0 8 7 15 15 15 8 0 15 4 15 9 0 5 18 27 40 49 22 22 40 39 40 38
0 -1 133 129 295 289 163 161 334 329 380 375 47 45 85 87 85 93 0 6 2 8 5 5
3 -3 32 21 64 53 32 33 63 59 68 59 16 0 344 -331 338 -341 -8 -13 -9 -164 -1
-177 3 -6 2 -14 -4 -17 -8 -5 -8 -11 0 -20 8 -10 7 -14 -2 -18 -10 -4 -10 -7
1 -15 11 -8 11 -10 0 -15 -11 -4 -11 -6 -1 -6 7 -1 10 -6 7 -11 -9 -14 -8
-316 0 -330 3 -5 0 -10 -7 -10 -9 0 -10 -3 -2 -8 7 -4 8 -15 4 -27 -4 -11 -4
-32 1 -47 4 -16 5 -28 1 -28 -4 0 -7 -27 -7 -60 0 -33 0 -60 0 -61 0 0 320 -3
711 -6 l712 -4 -1 268 0 268 -97 95 c-54 53 -139 134 -191 180 -51 47 -187
178 -303 293 -115 114 -210 207 -211 207 -1 0 -460 452 -1083 1068 -188 186
-345 336 -347 333 -3 -2 -5 4 -5 14 0 10 -2 16 -5 14 -2 -3 -148 137 -325 311
-176 174 -322 314 -325 312 -3 -3 -5 1 -5 9 0 8 -14 23 -30 34 -16 11 -30 26
-30 32 0 10 -118 13 -529 15 -349 2 -529 0 -528 -7z"/>
<path d="M6425 5698 c2 -10 0 -20 -5 -23 -5 -3 -5 -17 1 -33 7 -18 7 -28 0
-30 -6 -2 -8 -8 -5 -14 10 -16 11 -108 2 -108 -5 0 -6 -5 -2 -11 10 -17 11
-149 1 -149 -4 0 -5 -5 -1 -11 10 -17 12 -109 2 -109 -5 0 -6 -5 -2 -11 10
-17 12 -109 2 -109 -5 0 -6 -5 -2 -11 10 -17 12 -109 2 -109 -5 0 -6 -5 -2
-11 10 -17 12 -109 2 -109 -5 0 -6 -5 -2 -11 10 -17 12 -109 2 -109 -5 0 -6
-5 -2 -11 10 -17 12 -109 2 -109 -5 0 -6 -5 -2 -11 10 -17 12 -109 2 -109 -5
0 -6 -4 -3 -10 8 -13 98 -11 -778 -13 -499 -1 -757 1 -757 8 0 6 -3 5 -8 -1
-14 -22 -42 -12 -43 15 0 14 -1 294 -2 621 l-2 595 -703 0 c-666 1 -704 0
-713 -17 -7 -13 -6 -18 3 -18 9 0 9 -3 -2 -10 -11 -7 -11 -10 -2 -10 7 0 10
-5 7 -10 -9 -14 -10 -124 -1 -138 3 -6 2 -14 -4 -17 -8 -5 -7 -11 1 -21 9 -11
8 -14 -2 -14 -11 0 -11 -2 1 -10 8 -5 11 -10 5 -10 -5 0 -10 -26 -10 -57 0
-32 5 -61 10 -65 7 -5 7 -8 0 -8 -11 0 -12 -101 -1 -118 3 -6 2 -14 -4 -17 -8
-5 -7 -11 1 -21 9 -11 8 -14 -2 -14 -11 0 -11 -2 1 -10 8 -5 11 -10 5 -10 -5
0 -10 -26 -10 -57 0 -32 5 -61 10 -65 7 -5 7 -8 0 -8 -6 0 -9 -19 -7 -44 4
-42 10 -50 268 -305 146 -143 270 -261 275 -261 6 0 7 -4 4 -10 -3 -5 1 -10
10 -10 9 0 15 -3 13 -7 -4 -8 159 -171 169 -171 3 0 47 -39 97 -87 339 -328
571 -545 580 -545 2 0 4 40 3 90 0 49 2 93 6 96 10 11 1570 11 1585 0 9 -6 9
-12 1 -22 -6 -8 -7 -14 -2 -14 5 0 9 -9 10 -20 1 -11 -3 -20 -8 -20 -6 0 -7
-5 -3 -11 10 -17 12 -109 2 -109 -5 0 -6 -5 -2 -11 10 -17 12 -109 2 -109 -5
0 -6 -5 -2 -11 10 -17 12 -109 2 -109 -5 0 -6 -5 -2 -11 10 -17 12 -109 2
-109 -5 0 -6 -5 -2 -11 10 -17 12 -109 2 -109 -5 0 -6 -5 -2 -11 10 -17 12
-109 2 -109 -5 0 -6 -5 -2 -11 10 -17 12 -109 2 -109 -5 0 -6 -5 -2 -11 10
-17 12 -109 2 -109 -5 0 -6 -5 -2 -11 10 -17 12 -109 2 -109 -5 0 -6 -5 -2
-11 10 -17 12 -109 2 -109 -5 0 -6 -5 -2 -11 10 -17 12 -109 2 -109 -5 0 -5
-7 0 -16 5 -9 7 -25 5 -35 -5 -18 9 -19 366 -19 l371 0 0 1728 c0 1727 0 1728
-20 1729 -13 1 -18 -2 -14 -9 5 -7 2 -8 -7 -2 -20 12 -239 13 -232 1 4 -6 1
-7 -8 -1 -8 4 -114 9 -235 9 -205 0 -222 -1 -219 -17z"/>
</g>
</svg>
